<?xml version="1.0" encoding="utf-8"?>
<!-- Generator: Adobe Illustrator 17.1.0, SVG Export Plug-In . SVG Version: 6.00 Build 0)  -->
<!DOCTYPE svg PUBLIC "-//W3C//DTD SVG 1.1//EN" "http://www.w3.org/Graphics/SVG/1.1/DTD/svg11.dtd">
<svg version="1.1" id="Layer_1" xmlns="http://www.w3.org/2000/svg" xmlns:xlink="http://www.w3.org/1999/xlink" x="0px" y="0px"
	 viewBox="0 0 439.3 63.5" enable-background="new 0 0 439.3 63.5" xml:space="preserve">
<g>
	<g>
		<path fill="#FFFFFF" d="M394.1,63.5c-1.7,0.3-7.8-3.1-7.9-4.2c0-0.7,17.3-21.3,17.3-21.3l4.4,2.2
			C407.9,40.2,394.9,63.3,394.1,63.5z"/>
	</g>
</g>
<g>
	<path fill="#FFFFFF" d="M413.8,40.3c-2.2-0.3-4.4-0.8-6.4-1.7c-5.5-2.3-9.6-6.3-11.7-11.4c-2.1-5.1-1.8-10.6,0.7-15.5
		C400.6,3.6,410-1,419.9,0.2c2.2,0.3,4.4,0.8,6.4,1.7c5.5,2.3,9.6,6.3,11.7,11.4c2.1,5.1,1.8,10.6-0.7,15.5
		C433.1,36.8,423.6,41.5,413.8,40.3z M419.4,3.2c-8.4-1-16.4,2.9-19.9,9.8c-2.1,4.2-2.4,8.8-0.6,13.1c1.8,4.3,5.3,7.7,9.9,9.7
		c1.7,0.7,3.6,1.2,5.4,1.4c8.4,1,16.4-2.9,19.9-9.8c2.1-4.2,2.4-8.8,0.6-13.1c-1.8-4.3-5.3-7.7-9.9-9.7
		C423.1,3.9,421.3,3.4,419.4,3.2z"/>
</g>
<g>
	<path fill="#FFFFFF" d="M415.4,33l0.5-1.1c4.3,0.3,7.9-1.2,10.7-4.1c2.3-2.4,3.4-5.5,3.2-8.7c-0.3-3.2-1.9-6.1-4.6-8.2
		c-1.8-1.4-3.4-2.2-5.7-2.6l-0.3-1.2c2.5,0.4,4.9,1.4,6.8,2.9c3,2.3,4.7,5.5,5,9c0.3,3.5-0.9,6.9-3.5,9.5
		C424.5,31.7,420.1,33.4,415.4,33z"/>
</g>
<g>
	<path fill="#FFFFFF" d="M21.8,15.9c5.3,0,9.4,1.4,12.4,4c3,2.7,4.6,6.2,4.6,10.6c0,4.4-1.5,7.9-4.6,10.6c-3,2.7-7.2,4-12.4,4h-7.8
		v10.2l4.9,0.9v5.5H0v-5.5l4.9-0.9V22.4L0,21.5v-5.5h4.9H21.8z M14.1,38.1h7.8c2.6,0,4.5-0.7,5.8-2.1s2-3.2,2-5.3c0-2.2-0.7-4-2-5.5
		c-1.3-1.4-3.3-2.2-5.8-2.2h-7.8V38.1z"/>
	<path fill="#FFFFFF" d="M63.3,61.8c-0.3-0.6-0.5-1.2-0.7-1.7s-0.3-1.2-0.4-1.8c-1.1,1.3-2.4,2.3-4,3.1c-1.6,0.8-3.4,1.2-5.4,1.2
		c-3.3,0-6-0.9-8-2.7c-2-1.8-2.9-4.3-2.9-7.4c0-3.2,1.3-5.7,3.8-7.4c2.6-1.7,6.3-2.6,11.3-2.6h4.7V39c0-1.6-0.5-2.9-1.4-3.8
		c-0.9-0.9-2.3-1.4-4.2-1.4c-1.1,0-2,0.1-2.8,0.4c-0.8,0.2-1.5,0.5-2,0.9l-0.6,3.7h-6.9l0-7.6c1.7-1.1,3.6-2.1,5.8-2.9
		c2.2-0.8,4.5-1.2,7.1-1.2c4.2,0,7.7,1,10.3,3.1c2.6,2.1,4,5,4,8.8v14.1c0,0.5,0,1,0,1.5c0,0.5,0,0.9,0.1,1.3l2.8,0.4v5.5H63.3z
		 M55.4,55.7c1.4,0,2.6-0.3,3.8-0.9c1.1-0.6,2-1.3,2.6-2.3v-5.2h-4.7c-2,0-3.4,0.5-4.4,1.4c-1,0.9-1.5,2-1.5,3.3
		c0,1.2,0.4,2.1,1.1,2.7S54,55.7,55.4,55.7z"/>
	<path fill="#FFFFFF" d="M88.1,19.3v8.4h6v6.5h-6v17.4c0,1.3,0.3,2.3,0.8,2.8c0.5,0.6,1.3,0.9,2.2,0.9c0.6,0,1.2,0,1.7-0.1
		c0.5-0.1,1-0.1,1.6-0.3l0.8,6.6c-1,0.3-2,0.6-3.1,0.7c-1,0.2-2.1,0.2-3.3,0.2c-3.2,0-5.6-0.9-7.3-2.6c-1.7-1.7-2.6-4.5-2.6-8.3
		V34.2h-5v-6.5h5v-8.4H88.1z"/>
	<path fill="#FFFFFF" d="M115,62.5c-4.9,0-8.8-1.6-11.8-4.7s-4.4-7.2-4.4-12v-1.3c0-5.1,1.4-9.2,4.2-12.5c2.8-3.3,6.5-4.9,11.2-4.9
		c4.6,0,8.2,1.4,10.7,4.2c2.5,2.8,3.8,6.5,3.8,11.2v5h-20.4l-0.1,0.2c0.2,2.2,0.9,4.1,2.3,5.5c1.3,1.4,3.1,2.2,5.4,2.2
		c2,0,3.7-0.2,5.1-0.6c1.3-0.4,2.8-1.1,4.4-1.9l2.5,5.7c-1.4,1.1-3.2,2-5.5,2.8C120.2,62.1,117.7,62.5,115,62.5z M114.1,34.2
		c-1.7,0-3,0.7-4,2s-1.6,3-1.8,5.1l0.1,0.2h11.3v-0.8c0-2-0.5-3.5-1.4-4.7C117.4,34.7,116,34.2,114.1,34.2z"/>
	<path fill="#FFFFFF" d="M132.5,56.3l4.4-0.9V34.2l-4.9-0.9v-5.5h13.5l0.4,4.9c1.1-1.7,2.5-3.1,4.2-4.1c1.7-1,3.5-1.5,5.6-1.5
		c3.4,0,6.1,1.1,8.1,3.2c1.9,2.2,2.9,5.6,2.9,10.2v14.8l4.4,0.9v5.5h-17.6v-5.5l3.9-0.9V40.5c0-2.3-0.5-3.9-1.4-4.9
		s-2.3-1.4-4.2-1.4c-1.2,0-2.3,0.2-3.3,0.7c-1,0.5-1.8,1.2-2.4,2.1v18.3l3.7,0.9v5.5h-17.3V56.3z"/>
	<path fill="#FFFFFF" d="M187.6,19.3v8.4h6v6.5h-6v17.4c0,1.3,0.3,2.3,0.8,2.8c0.5,0.6,1.3,0.9,2.2,0.9c0.6,0,1.2,0,1.7-0.1
		c0.5-0.1,1-0.1,1.6-0.3l0.8,6.6c-1,0.3-2,0.6-3.1,0.7c-1,0.2-2.1,0.2-3.3,0.2c-3.2,0-5.6-0.9-7.3-2.6c-1.7-1.7-2.6-4.5-2.6-8.3
		V34.2h-5v-6.5h5v-8.4H187.6z"/>
	<path fill="#FFFFFF" d="M225.9,39.4h-6.2l-1-4.3c-0.6-0.5-1.4-0.9-2.4-1.3s-2-0.5-3.2-0.5c-1.6,0-2.9,0.4-3.8,1.1s-1.4,1.6-1.4,2.7
		c0,1,0.5,1.9,1.4,2.6c0.9,0.7,2.7,1.3,5.4,1.8c4.2,0.8,7.4,2.1,9.4,3.7s3.1,3.9,3.1,6.7c0,3.1-1.3,5.6-4,7.5s-6.1,2.9-10.4,2.9
		c-2.6,0-5-0.4-7.2-1.2s-4.1-1.9-5.8-3.3l-0.1-7.7h6.4l1.3,4.4c0.5,0.5,1.3,0.8,2.2,1s1.9,0.3,3,0.3c1.9,0,3.3-0.3,4.3-1
		c1-0.7,1.5-1.6,1.5-2.7c0-1-0.5-1.9-1.5-2.6s-2.8-1.4-5.5-2c-4-0.8-7-2-9.1-3.6c-2-1.6-3.1-3.8-3.1-6.6c0-2.9,1.2-5.3,3.5-7.4
		c2.4-2.1,5.7-3.1,10.1-3.1c2.6,0,5.2,0.4,7.5,1.1c2.4,0.7,4.2,1.6,5.6,2.7L225.9,39.4z"/>
	<path fill="#FFFFFF" d="M247.1,21.5l-3.5,0.6l8.1,27.5l0.6,2.5h0.2l0.5-2.5l8.2-27.6l-3.5-0.6v-5.5h16.8v5.5l-3.8,0.5l-13.5,39.8
		h-9.5L234.1,22l-3.8-0.5v-5.5h16.8V21.5z"/>
	<path fill="#FFFFFF" d="M277.3,56.3l4.4-0.9V34.2l-4.9-0.9v-5.5h14.1v27.6l4.4,0.9v5.5h-18.1V56.3z M290.9,19.5h-9.2v-6.9h9.2V19.5
		z"/>
	<path fill="#FFFFFF" d="M314.7,62.5c-4.9,0-8.8-1.6-11.8-4.7s-4.4-7.2-4.4-12v-1.3c0-5.1,1.4-9.2,4.2-12.5
		c2.8-3.3,6.5-4.9,11.2-4.9c4.6,0,8.2,1.4,10.7,4.2c2.5,2.8,3.8,6.5,3.8,11.2v5H308l-0.1,0.2c0.2,2.2,0.9,4.1,2.3,5.5
		c1.3,1.4,3.1,2.2,5.4,2.2c2,0,3.7-0.2,5.1-0.6c1.3-0.4,2.8-1.1,4.4-1.9l2.5,5.7c-1.4,1.1-3.2,2-5.5,2.8
		C319.9,62.1,317.4,62.5,314.7,62.5z M313.8,34.2c-1.7,0-3,0.7-4,2s-1.6,3-1.8,5.1l0.1,0.2h11.3v-0.8c0-2-0.5-3.5-1.4-4.7
		C317.1,34.7,315.7,34.2,313.8,34.2z"/>
	<path fill="#FFFFFF" d="M381.3,33.2l-3.4,0.4l-7.1,28.1h-7.7l-6.3-20.3h-0.2l-6.3,20.3h-7.7l-7.2-28.1l-3.4-0.4v-5.5h15.4v5.5
		l-3.6,0.7l3.2,15.6h0.2l6.4-21.8h6.2l6.4,21.9h0.2l3.2-15.6l-3.7-0.7v-5.5h15.4V33.2z"/>
</g>
<g>
	<path fill="#D6EDFB" d="M313.8,12.8v-10h3.3v9.5c0,1.2,0.2,2.1,0.7,2.6c0.5,0.6,1.3,0.8,2.4,0.8c1.1,0,1.8-0.3,2.3-0.8
		c0.5-0.6,0.7-1.4,0.7-2.6V2.9h3.3v10c0,1.1-0.3,2.1-0.8,3c-0.5,0.9-1.3,1.5-2.2,2c-1,0.5-2.1,0.7-3.4,0.7c-2,0-3.5-0.5-4.6-1.5
		C314.4,16,313.8,14.6,313.8,12.8z"/>
	<path fill="#D6EDFB" d="M330.3,17.6v-3c1,0.5,1.9,0.8,2.7,1c0.7,0.2,1.4,0.3,2,0.3c0.7,0,1.3-0.1,1.7-0.4c0.4-0.3,0.6-0.7,0.6-1.2
		c0-0.3-0.1-0.6-0.3-0.8s-0.4-0.5-0.7-0.7s-1-0.6-2-1.1c-0.9-0.4-1.7-0.9-2.1-1.3c-0.5-0.4-0.9-0.9-1.1-1.4s-0.4-1.2-0.4-1.9
		c0-1.4,0.5-2.4,1.4-3.2c0.9-0.8,2.2-1.2,3.9-1.2c0.8,0,1.6,0.1,2.3,0.3s1.5,0.5,2.3,0.8l-1.1,2.6c-0.8-0.3-1.5-0.6-2-0.7
		c-0.5-0.1-1.1-0.2-1.6-0.2c-0.6,0-1.1,0.1-1.4,0.4c-0.3,0.3-0.5,0.7-0.5,1.1c0,0.3,0.1,0.5,0.2,0.8c0.1,0.2,0.3,0.4,0.6,0.6
		s1,0.6,2.1,1.1c1.4,0.7,2.4,1.4,3,2.1c0.5,0.7,0.8,1.6,0.8,2.6c0,1.4-0.5,2.5-1.5,3.3s-2.4,1.2-4.2,1.2
		C333,18.5,331.5,18.2,330.3,17.6z"/>
	<path fill="#D6EDFB" d="M344,18.3V2.9h4.9c1.9,0,3.3,0.4,4.3,1.2s1.5,2,1.5,3.6c0,1.7-0.5,2.9-1.6,3.8c-1,0.9-2.5,1.3-4.4,1.3h-1.4
		v5.5H344z M347.3,10.1h1.1c1,0,1.8-0.2,2.3-0.6s0.8-1,0.8-1.7c0-0.8-0.2-1.3-0.6-1.7c-0.4-0.4-1.1-0.6-2-0.6h-1.5V10.1z"/>
	<path fill="#D6EDFB" d="M357,5.6V2.9h11.7v2.7h-4.2v12.7h-3.3V5.6H357z"/>
	<path fill="#D6EDFB" d="M373,16.5c-1.2-1.4-1.8-3.3-1.8-5.9s0.6-4.6,1.8-5.9c1.2-1.4,3-2,5.4-2s4.2,0.7,5.4,2.1
		c1.2,1.4,1.8,3.3,1.8,5.9c0,2.6-0.6,4.5-1.8,5.9c-1.2,1.4-3,2.1-5.4,2.1S374.2,17.9,373,16.5z M375.5,6.7c-0.7,0.9-1,2.2-1,3.9
		s0.3,3,1,3.9c0.7,0.9,1.6,1.3,2.9,1.3c2.6,0,3.9-1.7,3.9-5.2c0-3.5-1.3-5.2-3.9-5.2C377.1,5.3,376.1,5.8,375.5,6.7z"/>
</g>
</svg>
