<svg id="Layer_1" data-name="Layer 1" xmlns="http://www.w3.org/2000/svg" viewBox="0 0 439.34 63.47"><title>Artboard 1</title><path fill="#505f70" d="M394.06,63.45c-1.7.29-7.82-3.06-7.87-4.16,0-.65,17.29-21.25,17.29-21.25l4.43,2.17S394.9,63.31,394.06,63.45Z"/><path fill="#505f70" d="M413.79,40.26a24.44,24.44,0,0,1-6.4-1.69A21.08,21.08,0,0,1,395.71,27.2a18.22,18.22,0,0,1,.7-15.46C400.59,3.62,410-1,419.87.19a24.47,24.47,0,0,1,6.4,1.69A21.08,21.08,0,0,1,438,13.25a18.22,18.22,0,0,1-.7,15.46C433.07,36.83,423.64,41.47,413.79,40.26Zm5.63-37.07C411,2.16,403,6.11,399.47,13a15.49,15.49,0,0,0-.59,13.14,17.92,17.92,0,0,0,9.92,9.67,20.82,20.82,0,0,0,5.44,1.43c8.38,1,16.39-2.92,19.95-9.82a15.49,15.49,0,0,0,.59-13.14,17.92,17.92,0,0,0-9.92-9.67A20.82,20.82,0,0,0,419.42,3.19Z"/><path fill="#fff" d="M415.39,33l.51-1.1a12.92,12.92,0,0,0,10.7-4.12,11.1,11.1,0,0,0,3.18-8.68A11.49,11.49,0,0,0,425.19,11a11.85,11.85,0,0,0-5.67-2.6l-.31-1.23A15.3,15.3,0,0,1,426,10.07a12.6,12.6,0,0,1,5,9,12.18,12.18,0,0,1-3.49,9.52A15.06,15.06,0,0,1,415.39,33Z"/><path fill="#505f70" d="M21.84,15.91q7.88,0,12.43,4a13.52,13.52,0,0,1,4.55,10.6,13.41,13.41,0,0,1-4.55,10.59q-4.55,4-12.43,4H14.09V55.34l4.92.95V61.8H0V56.28l4.88-.95V22.41L0,21.46V15.91H21.84ZM14.09,38.07h7.75A7.6,7.6,0,0,0,27.65,36a7.49,7.49,0,0,0,2-5.34,7.8,7.8,0,0,0-2-5.47A7.48,7.48,0,0,0,21.84,23H14.09Z"/><path fill="#505f70" d="M63.34,61.8A16.67,16.67,0,0,1,62.68,60a13.76,13.76,0,0,1-.44-1.81,12.66,12.66,0,0,1-4,3.06,11.94,11.94,0,0,1-5.37,1.17,11.26,11.26,0,0,1-8-2.73A9.61,9.61,0,0,1,42,52.31a8.44,8.44,0,0,1,3.84-7.41q3.84-2.61,11.28-2.62h4.7V39a5,5,0,0,0-1.42-3.81,5.85,5.85,0,0,0-4.19-1.35,9.94,9.94,0,0,0-2.8.36,7.38,7.38,0,0,0-2,.87l-.6,3.66H43.87l0-7.56a25.81,25.81,0,0,1,5.78-2.87,21,21,0,0,1,7.11-1.17q6.33,0,10.29,3.1T71,39V53.1q0,.79,0,1.48a10.57,10.57,0,0,0,.11,1.32l2.8.38V61.8Zm-8-6.15a8,8,0,0,0,3.78-.9A7.3,7.3,0,0,0,61.8,52.5V47.3H57.1a6.42,6.42,0,0,0-4.44,1.37A4.29,4.29,0,0,0,51.15,52a3.41,3.41,0,0,0,1.12,2.71A4.56,4.56,0,0,0,55.37,55.65Z"/><path fill="#505f70" d="M88.14,19.35V27.7h6v6.46h-6V51.53A4,4,0,0,0,89,54.36a2.92,2.92,0,0,0,2.21.85,15.14,15.14,0,0,0,1.65-.08q.71-.08,1.59-.27l.79,6.65a22.29,22.29,0,0,1-3.06.71,21.31,21.31,0,0,1-3.28.24q-4.76,0-7.33-2.62T79,51.56V34.16H74V27.7h5V19.35Z"/><path fill="#505f70" d="M115,62.46q-7.37,0-11.79-4.73a16.9,16.9,0,0,1-4.41-12V44.47q0-7.59,4.18-12.51a13.86,13.86,0,0,1,11.2-4.88q6.9,0,10.71,4.16t3.81,11.25v5H108.31l-.06.19a8.9,8.9,0,0,0,2.25,5.55,7,7,0,0,0,5.44,2.17,17.73,17.73,0,0,0,5.07-.61,23.38,23.38,0,0,0,4.41-1.94l2.49,5.67a18.14,18.14,0,0,1-5.47,2.8A23.29,23.29,0,0,1,115,62.46Zm-.82-28.3a4.79,4.79,0,0,0-4,2,10.17,10.17,0,0,0-1.83,5.14l.09.16h11.28v-.82a7.38,7.38,0,0,0-1.37-4.68A4.94,4.94,0,0,0,114.14,34.16Z"/><path fill="#505f70" d="M132.52,56.28l4.41-.95V34.19L132,33.25V27.7H145.5l.41,4.88a12.48,12.48,0,0,1,4.19-4.07,10.88,10.88,0,0,1,5.58-1.45,10.26,10.26,0,0,1,8.07,3.25q2.9,3.25,2.9,10.18V55.34l4.41.95V61.8H153.47V56.28l3.94-.95V40.53q0-3.44-1.39-4.87a5.58,5.58,0,0,0-4.19-1.43,7.1,7.1,0,0,0-3.28.74,6.74,6.74,0,0,0-2.43,2.1V55.34l3.72.95V61.8H132.52Z"/><path fill="#505f70" d="M187.57,19.35V27.7h6v6.46h-6V51.53a4,4,0,0,0,.82,2.84,2.92,2.92,0,0,0,2.21.85,15.15,15.15,0,0,0,1.66-.08q.71-.08,1.59-.27l.79,6.65a22.3,22.3,0,0,1-3.06.71,21.32,21.32,0,0,1-3.28.24q-4.76,0-7.33-2.62t-2.57-8.29V34.16h-5V27.7h5V19.35Z"/><path fill="#505f70" d="M225.89,39.42h-6.18l-1-4.25a8,8,0,0,0-2.38-1.26,9.5,9.5,0,0,0-3.17-.5,6.17,6.17,0,0,0-3.84,1.09,3.31,3.31,0,0,0-1.42,2.73,3.1,3.1,0,0,0,1.35,2.57q1.35,1,5.42,1.81,6.33,1.26,9.39,3.7A8.14,8.14,0,0,1,227.15,52a9,9,0,0,1-4,7.52q-4,2.92-10.42,2.92a21.81,21.81,0,0,1-7.23-1.15A18.47,18.47,0,0,1,199.7,58l-.09-7.66H206l1.26,4.44a5.27,5.27,0,0,0,2.24,1,13,13,0,0,0,3,.33,7.51,7.51,0,0,0,4.27-1,3.16,3.16,0,0,0,1.47-2.74,3.21,3.21,0,0,0-1.48-2.62,15.12,15.12,0,0,0-5.45-2q-6-1.23-9.09-3.64a7.9,7.9,0,0,1-3.07-6.57,9.54,9.54,0,0,1,3.53-7.39q3.53-3.1,10.05-3.1a25.86,25.86,0,0,1,7.52,1.07,15.9,15.9,0,0,1,5.56,2.74Z"/><path fill="#505f70" d="M247.13,21.46l-3.5.63,8.13,27.51.57,2.52h.19l.54-2.46,8.16-27.57-3.47-.63V15.91h16.77v5.55l-3.84.5L257.15,61.8H247.7L234.15,22l-3.78-.5V15.91h16.77Z"/><path fill="#505f70" d="M277.26,56.28l4.44-.95V34.19l-4.92-.95V27.7H290.9V55.34l4.41.95V61.8H277.26ZM290.9,19.54h-9.2v-6.9h9.2Z"/><path fill="#505f70" d="M314.66,62.46q-7.37,0-11.79-4.73a16.9,16.9,0,0,1-4.41-12V44.47q0-7.59,4.18-12.51a13.86,13.86,0,0,1,11.2-4.88q6.9,0,10.71,4.16t3.81,11.25v5H308l-.06.19a8.9,8.9,0,0,0,2.25,5.55,7,7,0,0,0,5.44,2.17,17.73,17.73,0,0,0,5.07-.61,23.38,23.38,0,0,0,4.41-1.94l2.49,5.67a18.14,18.14,0,0,1-5.47,2.8A23.29,23.29,0,0,1,314.66,62.46Zm-.82-28.3a4.79,4.79,0,0,0-4,2A10.17,10.17,0,0,0,308,41.25l.09.16h11.28v-.82A7.38,7.38,0,0,0,318,35.91,4.94,4.94,0,0,0,313.85,34.16Z"/><path fill="#505f70" d="M381.32,33.25l-3.44.44L370.76,61.8h-7.69L356.74,41.5h-.19L350.21,61.8h-7.66L335.4,33.69,332,33.25V27.7h15.44v5.55l-3.62.69L347,49.54h.19l6.37-21.84h6.18l6.43,21.9h.19L369.53,34l-3.66-.72V27.7h15.44Z"/><path fill="#7c92ab" d="M313.84,12.83v-10h3.28v9.49a4,4,0,0,0,.72,2.63,3,3,0,0,0,2.38.84,2.91,2.91,0,0,0,2.33-.84,4,4,0,0,0,.72-2.64V2.86h3.28v10a5.76,5.76,0,0,1-.77,3,5,5,0,0,1-2.22,2,7.94,7.94,0,0,1-3.43.69A6.57,6.57,0,0,1,315.49,17,5.42,5.42,0,0,1,313.84,12.83Z"/><path fill="#7c92ab" d="M330.26,17.62v-3a18,18,0,0,0,2.65,1,7.81,7.81,0,0,0,2,.29,2.8,2.8,0,0,0,1.65-.41,1.42,1.42,0,0,0,.58-1.23,1.36,1.36,0,0,0-.25-.81,2.84,2.84,0,0,0-.74-.68,19.09,19.09,0,0,0-2-1.05A9.57,9.57,0,0,1,332,10.38,4.82,4.82,0,0,1,330.85,9,4.07,4.07,0,0,1,330.42,7a4,4,0,0,1,1.4-3.23,5.81,5.81,0,0,1,3.86-1.18,9.11,9.11,0,0,1,2.3.29,15.87,15.87,0,0,1,2.29.8l-1.06,2.55a15.44,15.44,0,0,0-2-.71,6.59,6.59,0,0,0-1.59-.2,2.1,2.1,0,0,0-1.42.43,1.44,1.44,0,0,0-.5,1.13,1.41,1.41,0,0,0,.2.76,2.2,2.2,0,0,0,.64.63,19.68,19.68,0,0,0,2.07,1.09,8.31,8.31,0,0,1,3,2.08,4.06,4.06,0,0,1,.81,2.56,4,4,0,0,1-1.51,3.29,6.57,6.57,0,0,1-4.2,1.2A9.92,9.92,0,0,1,330.26,17.62Z"/><path fill="#7c92ab" d="M344,18.33V2.86h4.93a6.54,6.54,0,0,1,4.27,1.21,4.42,4.42,0,0,1,1.46,3.61,4.74,4.74,0,0,1-1.55,3.82,6.63,6.63,0,0,1-4.42,1.32h-1.4v5.5Zm3.28-8.19h1.08a3.6,3.6,0,0,0,2.26-.6,2.09,2.09,0,0,0,.75-1.74,2.14,2.14,0,0,0-.63-1.7,3,3,0,0,0-2-.55h-1.49Z"/><path fill="#7c92ab" d="M357,5.59V2.86h11.68V5.59h-4.2V18.33h-3.28V5.59Z"/><path fill="#7c92ab" d="M373,16.49a8.65,8.65,0,0,1-1.83-5.93A8.56,8.56,0,0,1,373,4.65a6.89,6.89,0,0,1,5.4-2,6.79,6.79,0,0,1,5.38,2.06,8.68,8.68,0,0,1,1.81,5.91,8.61,8.61,0,0,1-1.83,5.9,8.08,8.08,0,0,1-10.77,0Zm2.45-9.82a6.45,6.45,0,0,0-1,3.92,6.48,6.48,0,0,0,1,3.91,3.44,3.44,0,0,0,2.95,1.31q3.93,0,3.93-5.23t-3.91-5.24A3.47,3.47,0,0,0,375.48,6.67Z"/></svg>
