<svg xmlns="http://www.w3.org/2000/svg" viewBox="0 0 84.5 115.8"><title>DownloadPDF_icon</title><path d="M84.5 112.2c0 2-1.6 3.6-3.6 3.6H3.6c-2 0-3.6-1.6-3.6-3.6V3.6C0 1.6 1.6 0 3.6 0h54.3c1.2 0 2.3.5 3.1 1.4l21.8 25.3c1.1 1.3 1.7 3 1.8 4.7v80.8z"/><path fill="#FFF" d="M4.3 57.8V14.3C4.4 6.5 7 3.9 14.9 3.8c10.8 0 21.7.1 32.5-.1 3.6-.1 5.1 1 5 4.8-.2 6-.1 12 0 18 .1 6.3 3 9.1 9.3 9.2 4.8.1 9.7.1 14.5 0 2.9-.1 4.2.9 4.2 4-.1 21.2 0 42.3-.1 63.5 0 5.4-3.1 8.4-8.5 8.5-19.7.1-39.3.1-59 0-5.7 0-8.4-3.3-8.5-9.5V57.8z"/><path fill="#FFF" d="M57.7 5.5l22.4 26.1c-7.6 0-14.1.1-20.6-.1-2-.1-3.1-1.9-3.1-4-.1-7.1 0-15.3 0-22.4.4-.2 1.1.2 1.3.4z"/><path d="M42.3 96.4c-1.2 0-2.2-1-2.2-2.2v-46c0-1.2 1-2.2 2.2-2.2s2.2 1 2.2 2.2v46c.1 1.2-.9 2.2-2.2 2.2z"/><path d="M25.4 80.9c-.8-.9-.8-2.2.1-3.1l.1-.1c.9-.8 2.2-.8 3 .1l12.2 13.1c.7.8 2 .9 2.8.1l.1-.1L56 77.8c.8-.8 2.1-.9 3-.1l.1.1c.9.8.9 2.2.1 3.1L43.8 97.5c-.7.8-2 .9-2.8.1l-.1-.1-15.5-16.6z"/></svg>