<svg xmlns="http://www.w3.org/2000/svg" width="56.393" height="39.5" viewBox="0 0.027 56.393 39.5"><path d="M.569 1.979A3.925 3.925 0 0 0 0 3.999v31.556c0 .752.222 1.449.585 2.049L24.263 20.18.569 1.979zm55.378.229L32.152 20.186 55.84 37.543a3.92 3.92 0 0 0 .553-1.988V3.999a3.95 3.95 0 0 0-.446-1.791zM28.196 22.59c-.8 0-1.244-.344-2.128-1.027a9.18 9.18 0 0 1-.151-.117L2.049 39.01c.572.32 1.222.518 1.923.518h48.447c.729 0 1.402-.211 1.989-.553l-23.92-17.527c-.782.605-1.53 1.142-2.292 1.142zm-1.659-3.187c.293.221.542.414.755.578.121.094.212.162.303.23.377.287.518.379.602.379.107-.027.349-.188.608-.377.226-.166.465-.352.648-.494l.418-.32.594-.449L54.626.698a3.95 3.95 0 0 0-2.207-.671H3.972c-.717 0-1.38.205-1.961.537L25.94 18.946l.597.457z"/></svg>