<svg xmlns="http://www.w3.org/2000/svg" width="12.219" height="12.22" viewBox="0 0 12.219 12.22"><path fill="#E5EBF0" d="M6.11 1C3.292 1 1 3.292 1 6.109s2.292 5.11 5.11 5.11 5.109-2.293 5.109-5.11S8.927 1 6.11 1zm.771 8.188H5.304V8.076h1.577v1.112zM8.268 5.2a1.688 1.688 0 0 1-.326.567c-.139.16-.309.303-.504.43a4.365 4.365 0 0 1-.666.345v.961H5.398v-1.42c.185-.053.352-.108.501-.165a1.82 1.82 0 0 0 .47-.274c.154-.112.273-.243.361-.392a.986.986 0 0 0 .131-.506c0-.281-.084-.481-.252-.601s-.403-.179-.708-.179c-.187 0-.398.043-.634.13-.236.087-.451.2-.646.337h-.156V3.149a4.56 4.56 0 0 1 .769-.238 4.56 4.56 0 0 1 1.054-.123c.643 0 1.152.153 1.529.459.379.307.566.707.566 1.201 0 .283-.037.534-.115.752z"/><path fill="#779299" d="M6.11 0A6.117 6.117 0 0 0 0 6.109c0 3.369 2.741 6.11 6.11 6.11s6.109-2.741 6.109-6.11A6.116 6.116 0 0 0 6.11 0zm0 11.22C3.292 11.22 1 8.927 1 6.109S3.292 1 6.11 1s5.109 2.292 5.109 5.109S8.927 11.22 6.11 11.22z"/><path fill="#779299" d="M5.304 8.076h1.577v1.111H5.304zM7.817 3.247c-.377-.307-.887-.459-1.529-.459-.356 0-.708.041-1.053.124a4.659 4.659 0 0 0-.77.237v1.284h.156c.195-.137.41-.25.646-.337.235-.087.447-.13.634-.13.304 0 .541.06.708.179s.252.32.252.601a.986.986 0 0 1-.131.506c-.087.149-.206.28-.36.393-.164.126-.32.218-.47.274-.15.056-.317.111-.502.164v1.42h1.374v-.961c.248-.104.469-.219.666-.345.195-.127.365-.27.504-.43.141-.16.25-.349.326-.567a2.23 2.23 0 0 0 .115-.752c0-.494-.187-.895-.566-1.201z"/></svg>