<svg xmlns="http://www.w3.org/2000/svg" viewBox="0 0 15 12"><title>Group 3 Copy</title><path d="M14.3 8.8l-.9-2.7s0-.1-.1-.1l-.1-.1h-.1-.1-.1-.1-.1l-2.4 1.3c-.3 0-.4.3-.3.6.1.1.3.2.5.2.1 0 .2 0 .2-.1l1.3-.6c-.5 1.6-1.7 2.9-3.3 3.4-2.7.8-5.5-.7-6.3-3.3-.1-.3-.4-.5-.6-.4-.3.1-.5.4-.4.6.8 2.6 3.2 4.2 5.7 4.2.6 0 1.2-.1 1.8-.3 1.9-.6 3.4-2 4-3.9l.4 1.4c.1.2.3.3.5.3h.2c.2 0 .3-.2.3-.5zM1.7 6.2c.1.1.2.2.3.2.1 0 .2 0 .3-.1l2.6-1.5c.2-.1.3-.4.1-.7-.1-.2-.4-.3-.7-.2l-1.4.9c.4-1.7 1.7-3 3.4-3.5C7.5.9 8.9 1 10 1.6s2 1.7 2.4 3c.1.3.4.4.6.3.3-.1.4-.4.3-.6-.5-1.5-1.5-2.8-2.9-3.5s-3-.9-4.6-.4c-2 .6-3.5 2.2-4 4.2l-.5-1.5c-.1-.3-.4-.4-.6-.3-.3.1-.4.4-.3.7L1.5 6l.2.2z"/></svg>