<svg width="106" height="126" viewBox="0 0 106 126" xmlns="http://www.w3.org/2000/svg"><title>file28</title><path d="M103.514 37.58c-1.086-2.607-2.389-4.67-3.91-6.191l-25.42-25.42c-1.521-1.52-3.584-2.824-6.191-3.911C65.386.972 62.996.429 60.824.429H8.679c-2.172 0-4.019.76-5.54 2.281C1.618 4.23.858 6.077.858 8.25v109.5c0 2.173.76 4.02 2.281 5.54 1.521 1.52 3.368 2.281 5.54 2.281h88.644c2.172 0 4.018-.761 5.538-2.281 1.521-1.521 2.281-3.367 2.281-5.54v-73c.001-2.173-.542-4.563-1.628-7.17zM63.43 11.509c1.574.543 2.688 1.141 3.34 1.792l25.502 25.502c.65.652 1.248 1.765 1.791 3.34H63.43V11.509zm31.285 103.634H11.286V10.858H53v33.893c0 2.173.76 4.019 2.281 5.54 1.521 1.52 3.367 2.281 5.541 2.281h33.893v62.571z" fill-rule="evenodd"/></svg>
