<svg width="126" height="126" viewBox="0 0 126 126" xmlns="http://www.w3.org/2000/svg"><title>refresh36</title><g fill="#000" fill-rule="evenodd"><path d="M124.023 7.191c-1.031-1.031-2.254-1.548-3.666-1.548s-2.633.517-3.666 1.548L106.1 17.702c-5.812-5.486-12.466-9.737-19.961-12.751C78.645 1.937 70.93.43 63 .43c-14.937 0-27.972 4.521-39.107 13.565C12.758 23.038 5.426 34.837 1.895 49.394v.57c0 .706.258 1.317.774 1.833s1.127.774 1.833.774h16.213c1.195 0 2.009-.625 2.444-1.874 2.281-5.431 3.72-8.608 4.318-9.532 3.802-6.192 8.853-11.053 15.154-14.584 6.301-3.53 13.09-5.296 20.368-5.296 10.918 0 20.396 3.721 28.435 11.162L80.189 43.69c-1.03 1.032-1.547 2.255-1.547 3.667s.517 2.634 1.547 3.666c1.033 1.032 2.256 1.548 3.668 1.548h36.5c1.412 0 2.634-.516 3.666-1.548 1.031-1.032 1.547-2.254 1.547-3.666v-36.5c0-1.412-.513-2.634-1.547-3.666zM120.926 73.429h-15.644c-1.194 0-2.009.624-2.443 1.874-2.28 5.432-3.72 8.608-4.317 9.532-3.803 6.19-8.854 11.053-15.154 14.583-6.301 3.531-13.09 5.296-20.368 5.296a40.641 40.641 0 0 1-15.235-2.933 42.045 42.045 0 0 1-13.117-8.312L45.81 82.308c1.032-1.031 1.548-2.255 1.548-3.666 0-1.412-.516-2.635-1.548-3.666-1.032-1.033-2.254-1.549-3.666-1.549h-36.5c-1.413 0-2.635.516-3.667 1.549C.945 76.007.429 77.23.429 78.642v36.5c0 1.411.516 2.635 1.548 3.666 1.033 1.031 2.255 1.549 3.667 1.549s2.634-.518 3.666-1.549l10.51-10.511c5.812 5.54 12.425 9.804 19.839 12.791 7.414 2.988 15.086 4.481 23.016 4.481 14.883 0 27.864-4.521 38.944-13.565 11.08-9.043 18.358-20.843 21.835-35.399.055-.108.081-.299.081-.57 0-.706-.259-1.316-.775-1.833-.517-.514-1.128-.773-1.834-.773z"/></g></svg>