<svg xmlns="http://www.w3.org/2000/svg" width="512" height="512" viewBox="0 0 512 512"><path d="M506.998 215.776L507 1l-86.177 86.176C374.646 40.999 313.721 15.568 249.27 15.567h-.001c-64.448 0-125.38 25.434-171.555 71.608C31.536 133.353 6.104 194.28 6.104 258.73c0 64.454 25.432 125.38 71.61 171.556 46.177 46.178 107.103 71.609 171.555 71.609 64.452 0 125.378-25.431 171.556-71.608L378.4 387.86c-72.41 72.41-185.851 72.41-258.26 0-34.845-34.844-54.035-80.703-54.035-129.129 0-48.425 19.19-94.284 54.036-129.13 72.406-72.405 185.84-72.408 258.256.001l-86.173 86.174h214.775z"/></svg>