<?xml version="1.0" encoding="utf-8"?>
<!-- Generator: Adobe Illustrator 15.0.0, SVG Export Plug-In . SVG Version: 6.00 Build 0)  -->
<!DOCTYPE svg PUBLIC "-//W3C//DTD SVG 1.1//EN" "http://www.w3.org/Graphics/SVG/1.1/DTD/svg11.dtd">
<svg version="1.1" id="Layer_1" xmlns="http://www.w3.org/2000/svg" xmlns:xlink="http://www.w3.org/1999/xlink" x="0px" y="0px"
	 width="1000px" height="1000px" viewBox="0 0 1000 1000" enable-background="new 0 0 1000 1000" xml:space="preserve">
<g>
	
		<image overflow="visible" opacity="0.75" enable-background="new    " width="506" height="746" xlink:href="E7F4BD7.png"  transform="matrix(0.9766 0 0 0.9766 259.7656 142.5781)">
	</image>
	<g>
		<path fill="#E2DC54" d="M500,151.27c-127.93,0-231.934,113.965-231.934,254.59c0,70.312,67.969,180.762,67.969,180.762
			l167.969,261.621L651.66,597.168c0,0,79.59-137.207,79.59-201.66C731.934,254.688,627.93,151.27,500,151.27z M500,509.277
			c-51.758,0-93.555-45.898-93.555-102.93S448.242,303.516,500,303.516s93.555,45.898,93.555,102.93
			C593.555,462.793,551.758,509.277,500,509.277z"/>
		<path fill="none" stroke="#526581" d="M500,151.27c-127.93,0-231.934,113.965-231.934,254.59
			c0,70.312,67.969,180.762,67.969,180.762l167.969,261.621L651.66,597.168c0,0,79.59-137.207,79.59-201.66
			C731.934,254.688,627.93,151.27,500,151.27z M500,509.277c-51.758,0-93.555-45.898-93.555-102.93S448.242,303.516,500,303.516
			s93.555,45.898,93.555,102.93C593.555,462.793,551.758,509.277,500,509.277z"/>
	</g>
</g>
</svg>
